# Blender 3.3.1
# www.blender.org
mtllib arm.mtl
o Armp
v -0.144163 -0.032308 -0.293771
v -0.063129 -0.122881 -0.338677
v -0.365644 -0.538154 0.016181
v 0.025873 -0.002368 -0.412469
v -0.414615 -0.504583 0.033264
v -0.425493 -0.465686 0.111061
v -0.098610 0.107698 -0.226671
v -0.390709 -0.442951 0.212997
v -0.062150 0.075460 -0.095292
v -0.333529 -0.452829 0.257637
v 0.025873 -0.002368 -0.040873
v -0.284558 -0.486399 0.240554
v 0.113897 -0.080194 -0.095292
v -0.273681 -0.525296 0.162758
v 0.150356 -0.112432 -0.226671
v -0.307267 -0.546733 0.069819
v 0.113897 -0.080194 -0.358050
v -0.177728 0.013221 -0.170274
v -0.144163 -0.012965 -0.040527
v -0.063129 -0.095526 0.019464
v 0.017905 -0.186099 -0.025442
v 0.051469 -0.231628 -0.148939
v 0.017905 -0.205441 -0.278686
v -0.312149 -0.379894 -0.050771
v -0.334883 -0.329599 0.019532
v -0.312149 -0.310075 0.099053
v -0.257265 -0.332757 0.141211
v -0.202381 -0.384359 0.121309
v -0.179647 -0.434653 0.051007
v -0.257265 -0.431496 -0.070672
v -0.202381 -0.454178 -0.028515
v 0.286234 0.349726 -0.419002
v 0.198336 0.404403 -0.367034
v 0.161928 0.427051 -0.241575
v 0.198336 0.404403 -0.116115
v 0.286234 0.349726 -0.064148
v 0.110753 0.262952 -0.355447
v 0.079409 0.287816 -0.243610
v 0.262097 0.142899 -0.131773
v 0.293440 0.118035 -0.243610
v 0.186425 0.202925 -0.401771
v 0.110753 0.262952 -0.131773
v 0.262097 0.142899 -0.355447
v 0.186425 0.202925 -0.085449
v -0.030633 0.151489 -0.248267
v 0.183679 -0.032925 -0.248267
v 0.000752 0.124481 -0.138747
v 0.152294 -0.005918 -0.357787
v 0.076523 0.059282 -0.093383
v -0.030699 0.099971 -0.357919
v 0.152294 -0.005918 -0.138747
v 0.076523 0.059282 -0.403152
v 0.077128 -0.128169 -0.327651
v 0.112479 -0.158089 -0.196897
v -0.008218 -0.048529 -0.384204
v 0.077128 -0.120760 -0.068537
v -0.008218 -0.038051 -0.017762
v -0.093564 0.041589 -0.074315
v -0.128915 0.071510 -0.205069
v -0.093564 0.034181 -0.333429
v 0.227958 0.545815 -0.230497
v 0.306210 0.542635 -0.372164
v 0.306210 0.543877 -0.071692
v 0.313438 0.699792 -0.210477
v 0.358784 0.670730 -0.347340
v 0.358784 0.660794 -0.079824
v -0.361445 -0.486007 0.262453
v -0.414863 -0.827003 0.123460
v -0.350835 -0.584903 0.059230
v -0.427238 -0.492099 0.256424
v -0.476502 -0.817650 0.123460
v -0.414174 -0.575602 0.063197
v -0.396092 -0.702270 0.390200
v -0.368116 -0.725157 0.092185
v -0.451751 -0.712467 0.092185
v -0.450763 -0.612565 0.338052
v -0.291451 -0.553374 0.224757
v -0.305948 -0.567975 0.174333
v -0.309560 -0.582776 0.124803
v -0.437116 -0.548131 0.113317
v -0.445528 -0.526817 0.158496
v -0.441499 -0.500264 0.218288
v -0.462005 -0.686661 0.155817
v -0.469797 -0.661259 0.215790
v -0.465708 -0.634310 0.277949
v -0.321910 -0.678786 0.288824
v -0.357566 -0.678288 0.215790
v -0.340141 -0.705152 0.155817
v -0.417374 -0.796488 0.333191
v -0.402376 -0.772693 0.332486
v -0.467173 -0.788933 0.333191
v -0.481230 -0.760040 0.332237
v -0.414855 -0.817000 0.267703
v -0.405101 -0.787521 0.250703
v -0.475062 -0.807864 0.267703
v -0.483513 -0.774904 0.250452
v -0.414536 -0.819722 0.187863
v -0.403816 -0.790745 0.177152
v -0.476174 -0.813724 0.187863
v -0.472624 -0.779458 0.176751
v -0.401518 -0.921028 0.370961
v -0.462836 -0.929829 0.374908
v -0.463490 -0.948477 0.312643
v -0.402173 -0.939675 0.308696
v -0.355024 -0.991320 0.383202
v -0.394197 -1.025695 0.396307
v -0.402830 -1.036045 0.341056
v -0.363657 -1.001670 0.327951
v -0.310497 -1.021431 0.386796
v -0.322307 -1.067210 0.402474
v -0.327831 -1.082189 0.352101
v -0.316021 -1.036409 0.336424
v -0.400771 -0.730084 0.392364
v -0.401440 -0.797574 0.115717
v -0.470778 -0.788548 0.116172
v -0.463210 -0.714731 0.388187
v -0.231360 -0.724332 0.452461
v -0.290597 -0.743013 0.464426
v -0.293849 -0.764445 0.414993
v -0.234612 -0.745764 0.403027
v -0.215488 -0.796152 0.476294
v -0.263144 -0.812009 0.488893
v -0.265633 -0.828413 0.451057
v -0.217977 -0.812555 0.438458
v -0.260731 -0.630523 0.405913
v -0.326132 -0.667682 0.426288
v -0.318647 -0.693986 0.363840
v -0.264749 -0.657002 0.344837
v -0.311546 -0.549654 0.337009
v -0.380376 -0.637120 0.388260
v -0.307169 -0.673196 0.305892
v -0.268043 -0.593620 0.254855
v -0.292316 -0.754343 0.443523
v -0.232986 -0.735048 0.427744
v -0.264389 -0.820211 0.469975
v -0.216732 -0.804354 0.457376
v -0.328382 -0.682506 0.407784
v -0.262740 -0.643763 0.375375
v -0.362899 -0.672107 0.386663
v -0.276720 -0.559055 0.289617
v -0.426911 -0.621864 0.365991
v -0.384136 -0.676397 0.387233
v -0.379685 -0.525922 0.300651
v -0.320074 -0.523832 0.262922
v 0.374132 0.305780 -0.042373
v 0.410318 0.272566 -0.202273
v 0.399360 0.286214 -0.333368
v 0.420720 0.522587 -0.406429
v 0.458266 0.689306 -0.362496
v 0.458246 0.745318 -0.197208
v 0.423255 0.525630 -0.007202
v 0.458266 0.683097 -0.050278
v 0.427933 0.392611 -0.013795
v 0.442083 0.371878 -0.338560
v -0.463490 -0.948476 0.232408
v -0.402173 -0.939675 0.228461
v -0.402830 -1.036045 0.260821
v -0.363657 -1.001670 0.247716
v -0.327831 -1.082189 0.271866
v -0.316021 -1.036409 0.256189
v -0.463490 -0.948477 0.166657
v -0.402173 -0.939675 0.162710
v -0.402830 -1.036045 0.195070
v -0.363657 -1.001670 0.181965
v -0.327831 -1.082189 0.206115
v -0.316021 -1.036409 0.190438
v -0.410418 -0.750017 0.402480
v -0.466853 -0.741454 0.402480
v -0.401518 -0.873005 0.441163
v -0.462836 -0.881806 0.445110
v -0.355024 -0.943297 0.453404
v -0.394197 -0.977672 0.466509
v -0.310497 -0.973408 0.456998
v -0.322307 -1.019187 0.472675
v 0.461918 0.382245 -0.177728
v 0.481340 0.563781 -0.187468
vn -0.2139 0.2834 -0.9348
vn -0.2701 0.7334 0.6238
vn -0.9098 0.2006 -0.3635
vn -0.5361 0.0678 -0.8414
vn -0.7986 0.5906 0.1156
vn -0.8121 0.5338 0.2355
vn -0.7605 0.5175 -0.3923
vn 0.8629 -0.3219 0.3897
vn -0.2004 0.5367 0.8196
vn -0.5959 0.7293 0.3362
vn 0.6565 -0.7535 -0.0354
vn 0.4888 0.0709 0.8695
vn -0.0288 0.5544 0.8318
vn 0.2537 -0.7902 -0.5579
vn 0.7610 -0.4660 0.4515
vn 0.5455 0.0405 0.8371
vn -0.4722 -0.2033 -0.8578
vn 0.5966 -0.7808 -0.1854
vn 0.8095 -0.4713 0.3500
vn -0.8127 0.4813 -0.3284
vn 0.0146 -0.6866 -0.7269
vn 0.6182 -0.7098 -0.3377
vn 0.5676 0.3735 0.7337
vn -0.6142 -0.2452 -0.7501
vn 0.0368 -0.5483 -0.8355
vn -0.8440 0.3528 -0.4040
vn -0.7942 0.4531 -0.4049
vn 0.7053 -0.6369 0.3114
vn -0.4119 0.1784 -0.8936
vn -0.8169 0.4743 0.3282
vn 0.7641 -0.6033 -0.2287
vn -0.4231 0.1607 0.8917
vn 0.3989 -0.3116 -0.8624
vn -0.0511 -0.3050 0.9510
vn 0.3148 -0.2827 0.9061
vn 0.3442 -0.2470 -0.9058
vn -0.3573 0.2306 0.9051
vn 0.7612 -0.5495 -0.3445
vn -0.7397 0.5777 0.3450
vn -0.3104 0.2659 -0.9126
vn 0.7509 -0.5633 0.3448
vn -0.7231 0.6151 -0.3142
vn -0.5833 0.7353 -0.3451
vn 0.9025 -0.2838 0.3240
vn -0.2515 0.3434 -0.9049
vn -0.4324 0.8398 0.3283
vn 0.8327 -0.4357 -0.3417
vn 0.0612 0.6173 0.7843
vn 0.3854 -0.1888 -0.9032
vn 0.6077 0.1522 0.7794
vn 0.0446 -0.5523 -0.8324
vn 0.6304 -0.7077 -0.3192
vn 0.8085 -0.4565 0.3714
vn 0.5374 0.0511 0.8418
vn -0.0356 0.5588 0.8286
vn -0.6075 0.7281 0.3175
vn -0.8217 0.4351 -0.3680
vn -0.5587 -0.0807 -0.8254
vn -0.8209 0.4005 0.4071
vn -0.2445 0.9232 -0.2966
vn -0.3861 0.2869 0.8767
vn -0.3082 0.8764 0.3700
vn -0.7626 0.5248 -0.3781
vn -0.2981 0.2543 -0.9200
vn -0.8066 0.4646 0.3655
vn -0.4700 0.0825 0.8788
vn -0.3116 -0.0818 0.9467
vn 0.4709 -0.2991 -0.8299
vn 0.8688 -0.2609 -0.4210
vn -0.0573 -0.2070 -0.9767
vn -0.9394 0.2833 0.1930
vn 0.1466 0.6481 0.7473
vn 0.0591 0.4495 0.8913
vn -0.0367 -0.2373 -0.9707
vn 0.9144 -0.3939 0.0932
vn 0.9939 0.1087 -0.0188
vn -0.9937 -0.0964 -0.0567
vn -0.9432 -0.3036 0.1348
vn -0.9662 -0.1182 0.2290
vn 0.2724 0.1227 0.9543
vn 0.9341 -0.3380 0.1147
vn 0.7999 -0.3108 0.5134
vn 0.9288 -0.3662 0.0562
vn -0.9902 0.1373 -0.0263
vn -0.9349 0.1259 -0.3318
vn -0.9750 0.1038 -0.1964
vn -0.9848 0.1733 -0.0105
vn 0.8525 -0.4299 -0.2972
vn 0.9394 -0.2637 0.2188
vn 0.8700 -0.4310 0.2396
vn 0.9468 -0.3210 0.0223
vn -0.9965 -0.0328 0.0763
vn -0.5169 -0.8142 0.2645
vn -0.8258 -0.5289 0.1958
vn 0.8459 0.4984 -0.1898
vn 0.9655 -0.2590 -0.0289
vn 0.5780 0.7726 -0.2627
vn 0.9758 0.1699 -0.1378
vn 0.8117 -0.4119 0.4142
vn 0.8098 -0.5676 -0.1482
vn 0.8732 -0.4348 0.2203
vn 0.8434 -0.5342 -0.0580
vn -0.0441 -0.2904 -0.9559
vn -0.9675 0.1934 0.1630
vn -0.9852 0.0745 -0.1544
vn -0.9815 0.1367 -0.1340
vn -0.9922 0.1241 0.0079
vn -0.0986 0.3826 0.9186
vn -0.9291 -0.2999 0.2162
vn -0.0416 -0.4903 -0.8706
vn 0.1008 0.3504 0.9312
vn 0.3775 -0.8584 0.3473
vn 0.0456 -0.5548 -0.8307
vn 0.0267 0.4557 0.8897
vn 0.9619 0.2220 -0.1595
vn -0.9218 -0.3875 0.0111
vn -0.5099 -0.8405 -0.1830
vn 0.6066 -0.7050 -0.3676
vn -0.1486 0.6082 0.7798
vn 0.8335 0.5144 0.2015
vn 0.9920 0.1262 0.0089
vn -0.6297 -0.4485 0.6343
vn -0.9099 -0.2976 0.2891
vn -0.9316 -0.3176 0.1770
vn 0.9758 0.1699 -0.1379
vn -0.3043 0.0042 0.9526
vn -0.1873 0.6086 0.7710
vn 0.3211 0.9052 0.2785
vn 0.7882 0.6023 -0.1263
vn 0.4059 -0.5483 -0.7312
vn 0.1977 -0.9689 0.1490
vn -0.3580 0.6018 0.7139
vn -0.5791 0.0234 0.8149
vn -0.2766 0.6377 0.7189
vn 0.6824 -0.2336 0.6926
vn 0.8737 -0.4744 -0.1074
vn 0.6219 -0.5573 -0.5501
vn -0.3464 -0.5261 -0.7766
vn -0.9608 0.2716 -0.0559
vn -0.7386 0.6648 0.1119
vn -0.9621 0.1291 -0.2400
vn -0.9647 0.0151 -0.2629
vn 0.9947 0.1028 0.0002
vn -0.9964 -0.0845 0.0100
vn -0.5240 -0.8517 -0.0000
vn -0.8220 -0.5694 -0.0000
vn 0.8494 0.5277 -0.0000
vn 0.9683 -0.2498 -0.0000
vn 0.5892 0.8080 -0.0000
vn 0.9945 0.1042 -0.0083
vn -0.9955 -0.0945 0.0054
vn 0.9929 0.0695 -0.0966
vn -0.7990 -0.4963 0.3395
vn 0.8130 0.4805 -0.3287
vn -0.9995 -0.0241 0.0188
vn -0.4649 -0.7308 0.4999
vn 0.9694 -0.2026 0.1386
vn 0.5168 0.7066 -0.4834
vn 0.0314 0.2963 0.9546
vn 0.0618 0.2390 0.9691
vn 0.0940 0.2829 0.9545
vn -0.0520 -0.3080 -0.9500
vn -0.0315 -0.3233 -0.9458
vn -0.0242 -0.3181 -0.9478
vn -0.0246 -0.3184 -0.9476
vn -0.0318 -0.3236 -0.9457
vn 0.8999 -0.4246 -0.0997
vn 0.8705 -0.4814 0.1028
vn 0.8819 -0.4686 0.0503
vn 0.8245 -0.5090 0.2472
vn 0.9660 -0.0427 0.2549
vn 0.9780 -0.0225 0.2073
vn 0.9742 -0.0294 0.2236
vn 0.9850 -0.0078 0.1724
vn 0.9885 -0.0264 -0.1492
vn 0.9786 -0.0414 -0.2017
vt 0.875000 0.913389
vt 0.000000 0.913389
vt 1.000000 0.913389
vt 1.000000 0.500000
vt 0.000000 0.500000
vt 1.000000 1.000000
vt 0.000000 1.000000
vt 0.875000 0.500000
vt 0.750000 0.500000
vt 0.000000 0.000000
vt 0.750000 1.000000
vt 0.625000 0.500000
vt 0.625000 1.000000
vt 0.500000 0.500000
vt 0.500000 1.000000
vt 0.375000 0.500000
vt 0.375000 1.000000
vt 0.250000 0.500000
vt 0.250000 1.000000
vt 0.125000 0.500000
vt 0.125000 1.000000
vt 0.750000 0.913389
vt 0.625000 0.913389
vt 0.500000 0.913389
vt 0.375000 0.913389
vt 0.250000 0.913389
vt 0.125000 0.913390
vt 0.875000 0.635228
vt 0.750000 0.635228
vt 0.625000 0.635228
vt 0.500000 0.635228
vt 0.375000 0.635228
vt 0.250000 0.635228
vt 0.000000 0.635228
vt 1.000000 0.635228
vt 0.125000 0.635228
vt 0.000000 1.000000
vt 1.000000 1.000000
vt 0.875000 1.000000
vt 0.750000 1.000000
vt 0.625000 1.000000
vt 0.500000 1.000000
vt 0.875000 1.000000
vt 0.750000 1.000000
vt 0.375000 1.000000
vt 0.250000 1.000000
vt 0.000000 1.000000
vt 1.000000 1.000000
vt 0.625000 1.000000
vt 0.125000 1.000000
vt 0.500000 1.000000
vt 0.750000 1.000000
vt 0.250000 1.000000
vt 0.625000 1.000000
vt 0.125000 1.000000
vt 0.500000 1.000000
vt 0.875000 1.000000
vt 0.375000 1.000000
vt 1.000000 1.000000
vt 0.000000 1.000000
vt 0.125000 0.966825
vt 0.250000 0.966825
vt 0.000000 0.966824
vt 1.000000 0.966825
vt 0.375000 0.966825
vt 0.500000 0.966825
vt 0.625000 0.966825
vt 0.750000 0.966825
vt 0.875000 0.966825
vt 0.750000 1.000000
vt 0.875000 1.000000
vt 0.625000 1.000000
vt 0.750000 1.000000
vt 0.875000 1.000000
vt 0.625000 1.000000
vt 0.875000 0.750000
vt 0.375000 0.250000
vt 0.375000 0.113046
vt 0.410910 0.250000
vt 0.625000 0.250000
vt 0.625000 0.750000
vt 0.375000 0.500000
vt 0.375000 0.636954
vt 0.750000 0.913389
vt 0.625000 0.500000
vt 0.500000 0.000000
vt 0.500000 1.000000
vt 0.500000 0.250000
vt 0.500000 0.500000
vt 0.500000 0.750000
vt 0.625000 0.062500
vt 0.625000 0.687019
vt 0.625000 0.125000
vt 0.625000 0.187500
vt 0.625000 0.562500
vt 0.625000 0.625000
vt 0.625000 0.687500
vt 0.500000 0.562500
vt 0.500000 0.625000
vt 0.500000 0.687500
vt 0.500000 0.062500
vt 0.437500 0.406250
vt 0.500000 0.125000
vt 0.500000 0.187500
vt 0.376882 0.063108
vt 0.375000 0.075068
vt 0.384530 0.063388
vt 0.373572 0.687926
vt 0.375000 0.674932
vt 0.385122 0.686616
vt 0.375934 0.125000
vt 0.375000 0.113046
vt 0.383476 0.125000
vt 0.375490 0.619113
vt 0.375000 0.636954
vt 0.383920 0.625000
vt 0.375000 0.187500
vt 0.375000 0.156819
vt 0.375000 0.113046
vt 0.387416 0.187500
vt 0.375000 0.593181
vt 0.375027 0.553930
vt 0.375000 0.636954
vt 0.388162 0.562500
vt 0.375000 0.075068
vt 0.375000 0.674932
vt 0.375000 0.636954
vt 0.375000 0.113046
vt 0.375000 0.075068
vt 0.375000 0.674932
vt 0.375000 0.636954
vt 0.375000 0.113046
vt 0.125000 0.674932
vt 0.375000 0.075068
vt 0.375000 0.674932
vt 0.375000 0.636954
vt 0.125000 0.636954
vt 0.375000 0.113046
vt 0.395293 0.000000
vt 0.395293 1.000000
vt 0.410910 0.250000
vt 0.409190 0.500000
vt 0.401333 0.750000
vt 0.375000 0.063462
vt 0.125000 0.686539
vt 0.375000 0.000000
vt 0.375000 1.000000
vt 0.375000 0.750000
vt 0.375000 0.686539
vt 0.375000 0.063462
vt 0.125000 0.686539
vt 0.375000 0.000000
vt 0.375000 1.000000
vt 0.375000 0.750000
vt 0.375000 0.686539
vt 0.375000 0.063462
vt 0.125000 0.686539
vt 0.375000 0.000000
vt 0.375000 1.000000
vt 0.375000 0.750000
vt 0.375000 0.686539
vt 0.125000 0.686539
vt 0.375000 0.063462
vt 0.375000 0.000000
vt 0.375000 1.000000
vt 0.375000 0.750000
vt 0.375000 0.686539
vt 0.375000 0.875000
vt 0.250000 0.686539
vt 0.375000 0.875000
vt 0.250000 0.686539
vt 0.375000 0.875000
vt 0.250000 0.686539
vt 0.375000 0.875000
vt 0.250000 0.686538
vt 0.437500 0.875000
vt 0.437500 0.937500
vt 0.500000 0.406731
vt 0.562500 0.718269
vt 0.375000 1.000000
vt 0.375000 0.500000
vt 0.250000 1.000000
vt 0.437500 0.750000
vt 0.125000 1.000000
vt 0.500000 1.000000
vt 0.875000 1.000000
vt 0.500000 1.000000
vt 0.875000 1.000000
vt 0.383476 0.125000
vt 0.375000 1.000000
vt 0.750000 1.000000
vt 0.625000 1.000000
vt 0.312500 0.781250
vt 0.625000 1.000000
vt 0.625000 0.562500
vt 0.000000 0.000000
vt 0.000000 1.000000
vt 0.000000 0.000000
vt 0.500000 0.062500
vt 0.000000 1.000000
vt 0.375000 0.636954
vt 0.375000 0.113046
vt 0.375000 0.636954
vt 0.375000 0.113046
vt 0.375000 0.636954
vt 0.125000 0.636954
vt 0.375000 0.113046
vt 0.375000 0.636954
vt 0.000000 0.635228
vt 0.375000 0.113046
vt 1.000000 0.635228
vt 0.375000 0.636954
vt 0.375000 1.000000
vt 0.375000 0.113046
vt 0.375000 0.636954
vt 0.375000 0.636954
vt 0.375000 1.000000
vt 0.125000 0.636954
vt 0.375000 0.113046
vt 0.375000 0.750000
vt 0.375000 1.000000
vt 0.375000 0.000000
vt 0.375000 0.075068
vt 1.000000 0.913389
vt 0.375000 0.750000
vt 0.375000 0.674932
vt 1.000000 1.000000
vt 0.375000 0.075068
vt 0.875000 1.000000
vt 0.375000 0.674932
vt 0.385122 0.686616
vt 0.375000 0.075068
vt 0.375000 0.250000
vt 0.375000 0.674932
vt 0.750000 0.500000
vt 0.125000 0.674932
vt 0.375000 0.075068
vt 0.000000 0.000000
vt 0.375000 0.674932
vt 0.500000 0.000000
vt 0.250000 0.531250
vt 0.250000 1.000000
vt 0.500000 0.000000
vt 0.312500 1.000000
vt 0.250000 1.000000
s 0
f 148/186/1 62/71/1 65/74/1 149/188/1
f 8/12/2 10/14/2 27/31/2 26/30/2
f 24/28/3 25/29/3 18/22/3 1/1/3
f 55/64/4 60/69/4 50/57/4 4/6/4
f 6/9/5 8/12/5 26/30/5 25/29/5
f 25/29/6 26/30/6 19/23/6 18/22/6
f 60/69/7 59/68/7 7/11/7 50/57/7
f 12/16/8 14/18/8 29/33/8 28/32/8
f 26/30/9 27/31/9 20/24/9 19/23/9
f 59/68/10 58/67/10 9/13/10 7/11/10
f 14/18/11 16/20/11 31/36/11 29/33/11
f 27/31/12 28/32/12 21/25/12 20/24/12
f 58/67/13 57/66/13 11/15/13 9/13/13
f 16/20/14 3/5/14 30/34/14 31/36/14
f 28/32/15 29/33/15 22/26/15 21/25/15
f 57/66/16 56/65/16 13/17/16 11/15/16
f 3/4/17 5/8/17 24/28/17 30/35/17
f 29/33/18 31/36/18 23/27/18 22/26/18
f 56/65/19 54/62/19 15/19/19 13/17/19
f 38/44/20 34/40/20 33/39/20 37/43/20
f 31/36/21 30/34/21 2/2/21 23/27/21
f 54/62/22 53/61/22 17/21/22 15/19/22
f 10/14/23 12/16/23 28/32/23 27/31/23
f 30/35/24 24/28/24 1/1/24 2/3/24
f 53/61/25 55/63/25 4/7/25 17/21/25
f 5/8/26 6/9/26 25/29/26 24/28/26
f 61/70/27 64/73/27 65/74/27 62/71/27
f 40/46/28 146/182/28 145/180/28 39/45/28
f 37/43/29 33/39/29 32/38/29 41/48/29
f 42/49/30 35/41/30 34/40/30 38/44/30
f 43/50/31 147/184/31 146/182/31 40/46/31
f 44/51/32 36/42/32 35/41/32 42/49/32
f 41/47/33 32/37/33 147/184/33 43/50/33
f 39/45/34 145/180/34 36/42/34 44/51/34
f 51/58/35 39/45/35 44/51/35 49/56/35
f 52/60/36 41/47/36 43/50/36 48/55/36
f 49/56/37 44/51/37 42/49/37 47/54/37
f 48/55/38 43/50/38 40/46/38 46/53/38
f 47/54/39 42/49/39 38/44/39 45/52/39
f 50/57/40 37/43/40 41/48/40 52/59/40
f 46/53/41 40/46/41 39/45/41 51/58/41
f 45/52/42 38/44/42 37/43/42 50/57/42
f 7/11/43 45/52/43 50/57/43
f 15/19/44 46/53/44 51/58/44 13/17/44
f 50/57/45 52/59/45 4/6/45
f 9/13/46 47/54/46 45/52/46 7/11/46
f 17/21/47 48/55/47 46/53/47 15/19/47
f 11/15/48 49/56/48 47/54/48 9/13/48
f 4/7/49 52/60/49 48/55/49 17/21/49
f 13/17/50 51/58/50 49/56/50 11/15/50
f 23/27/51 2/2/51 55/63/51 53/61/51
f 22/26/52 23/27/52 53/61/52 54/62/52
f 21/25/53 22/26/53 54/62/53 56/65/53
f 20/24/54 21/25/54 56/65/54 57/66/54
f 19/23/55 20/24/55 57/66/55 58/67/55
f 18/22/56 19/23/56 58/67/56 59/68/56
f 1/1/57 18/22/57 59/68/57 60/69/57
f 2/3/58 1/1/58 60/69/58 55/64/58
f 63/72/59 66/75/59 64/73/59 61/70/59
f 149/188/60 65/74/60 64/73/60 150/191/60
f 152/194/61 66/75/61 63/72/61 151/192/61
f 150/191/62 64/73/62 66/75/62 152/194/62
f 33/39/63 34/40/63 61/70/63 62/71/63
f 148/186/64 32/38/64 33/39/64 62/71/64
f 34/40/65 35/41/65 63/72/65 61/70/65
f 35/41/66 36/42/66 151/192/66 63/72/66
f 145/180/67 153/196/67 151/192/67 36/42/67
f 147/184/68 32/38/68 148/186/68 154/198/68
f 88/104/69 74/88/69 69/80/69 79/94/69
f 74/88/70 75/89/70 72/85/70 69/80/70
f 85/100/71 76/90/71 70/81/71 82/97/71
f 70/81/72 143/178/72 144/179/72 67/76/72
f 168/225/73 167/221/73 113/140/73 116/143/73
f 68/77/74 71/82/74 115/142/74 114/141/74
f 89/106/75 93/112/75 94/113/75 90/107/75
f 89/106/76 101/125/76 104/128/76 93/112/76
f 99/121/77 95/114/77 96/116/77 100/124/77
f 95/115/78 91/109/78 92/110/78 96/116/78
f 168/225/79 116/143/79 92/110/79 91/108/79
f 12/16/80 10/14/80 67/76/80 144/179/80
f 14/18/81 12/16/81 77/91/81 78/93/81
f 86/101/82 142/177/82 73/87/82
f 68/77/83 114/141/83 98/120/83 97/117/83
f 71/82/84 99/122/84 100/124/84 115/142/84
f 75/89/85 83/98/85 80/95/85 72/85/85
f 83/98/86 84/99/86 81/96/86 80/95/86
f 84/99/87 85/100/87 82/97/87 81/96/87
f 86/101/88 87/103/88 78/93/88 77/91/88
f 87/103/89 88/104/89 79/94/89 78/93/89
f 167/222/90 89/105/90 90/107/90 113/139/90
f 97/118/91 98/120/91 94/113/91 93/111/91
f 95/115/92 103/127/92 102/126/92 91/109/92
f 107/131/93 111/136/93 110/135/93 106/130/93
f 103/127/94 107/131/94 106/130/94 102/126/94
f 101/125/95 105/129/95 108/132/95 104/128/95
f 112/137/96 109/133/96 110/135/96 111/136/96
f 105/129/97 109/134/97 112/138/97 108/132/97
f 134/169/98 136/171/98 124/155/98 120/149/98
f 90/107/99 86/101/99 73/86/99 113/139/99
f 94/113/100 87/103/100 86/101/100 90/107/100
f 98/120/101 88/104/101 87/103/101 94/113/101
f 114/141/102 74/88/102 88/104/102 98/120/102
f 115/142/103 75/89/103 74/88/103 114/141/103
f 116/143/104 76/90/104 85/100/104 92/110/104
f 96/116/105 84/99/105 83/98/105 100/124/105
f 100/124/106 83/98/106 75/89/106 115/142/106
f 92/110/107 85/100/107 84/99/107 96/116/107
f 113/140/108 73/87/108 76/90/108 116/143/108
f 133/168/109 135/170/109 122/153/109 118/147/109
f 120/149/110 124/155/110 123/154/110 119/148/110
f 118/146/111 122/152/111 121/150/111 117/144/111
f 136/171/112 135/170/112 123/154/112 124/155/112
f 119/148/113 127/160/113 128/161/113 120/149/113
f 117/144/114 125/156/114 126/158/114 118/146/114
f 134/169/115 138/173/115 125/157/115 117/145/115
f 133/168/116 137/172/116 127/160/116 119/148/116
f 137/172/117 139/174/117 131/166/117 127/160/117
f 127/160/118 131/166/118 132/167/118 128/161/118
f 125/156/119 129/163/119 130/164/119 126/158/119
f 138/173/120 140/175/120 129/162/120 125/157/120
f 128/161/121 132/167/121 140/175/121 138/173/121
f 126/159/122 130/165/122 139/174/122 137/172/122
f 118/147/123 126/159/123 137/172/123 133/168/123
f 120/149/115 128/161/115 138/173/115 134/169/115
f 121/151/112 122/153/112 135/170/112 136/171/112
f 119/148/124 123/154/124 135/170/124 133/168/124
f 117/145/125 121/151/125 136/171/125 134/169/125
f 142/177/126 139/174/126 130/165/126 141/176/126
f 141/176/127 130/165/127 129/163/127 143/178/127
f 143/178/128 129/163/128 140/175/128 144/179/128
f 144/179/129 140/175/129 132/167/129 77/92/129
f 77/92/130 132/167/130 131/166/130 86/102/130
f 86/102/131 131/166/131 139/174/131 142/177/131
f 76/90/132 141/176/132 143/178/132 70/81/132
f 73/87/133 142/177/133 141/176/133 76/90/133
f 10/14/134 8/12/134 70/81/134 67/76/134
f 144/179/135 77/92/135 12/16/135
f 16/20/136 14/18/136 78/93/136 79/94/136
f 3/5/137 16/20/137 79/94/137 69/80/137
f 5/8/138 3/5/138 69/80/138 72/85/138
f 81/96/139 82/97/139 6/10/139
f 8/12/140 6/10/140 82/97/140 70/81/140
f 81/96/141 6/10/141 80/95/141
f 6/10/142 5/8/142 72/85/142 80/95/142
f 93/112/143 104/128/143 156/202/143 97/119/143
f 103/127/144 95/115/144 99/123/144 155/201/144
f 111/136/145 107/131/145 157/203/145 159/205/145
f 107/131/146 103/127/146 155/201/146 157/203/146
f 104/128/147 108/132/147 158/204/147 156/202/147
f 112/137/148 111/136/148 159/205/148 160/206/148
f 108/132/149 112/138/149 160/207/149 158/204/149
f 97/119/150 156/202/150 162/210/150 68/78/150
f 155/201/151 99/123/151 71/83/151 161/208/151
f 159/205/145 157/203/145 163/212/145 165/216/145
f 157/203/146 155/201/146 161/208/146 163/212/146
f 156/202/147 158/204/147 164/214/147 162/210/147
f 160/206/148 159/205/148 165/216/148 166/218/148
f 158/204/149 160/207/149 166/219/149 164/214/149
f 101/125/152 89/106/152 167/223/152 169/228/152
f 102/126/153 106/130/153 172/234/153 170/230/153
f 105/129/154 101/125/154 169/228/154 171/232/154
f 91/109/155 102/126/155 170/230/155 168/226/155
f 106/130/156 110/135/156 174/239/156 172/234/156
f 110/135/157 109/133/157 173/236/157 174/239/157
f 109/134/158 105/129/158 171/232/158 173/237/158
s 1
f 170/231/159 169/229/159 167/224/159 168/227/159
f 169/229/160 170/231/160 172/235/160 171/233/160
f 173/238/161 171/233/161 172/235/161 174/240/161
f 166/220/162 165/217/162 163/213/162 164/215/162
f 162/211/163 164/215/164 163/213/164 161/209/165
f 161/209/165 71/84/166 68/79/166 162/211/163
f 147/185/167 154/199/167 175/241/168 146/183/169
f 175/241/168 153/197/170 145/181/170 146/183/169
f 175/242/171 176/244/172 151/193/173 153/197/171
f 176/244/172 150/190/174 152/195/174 151/193/173
f 176/245/175 148/187/175 149/189/175 150/191/175
f 175/243/176 154/200/176 148/187/176 176/245/176
