# Blender 3.3.1
# www.blender.org
mtllib arm_lowpoly2.mtl
o 11535_arm_V3_
v 1.856358 2.541131 -2.625400
v 2.286231 3.019820 -2.130537
v 1.005530 5.323411 -0.691750
v 2.231694 3.079140 -1.226699
v 1.152017 3.856725 -0.248722
v 0.990089 2.644366 -0.309227
v 2.222943 4.418405 -3.061238
v -1.355966 -6.808483 2.439210
v -1.613240 -6.177562 2.140788
v -1.889140 -5.964365 1.993066
v -1.399340 -5.718119 1.870616
v 2.724114 4.674745 -1.864899
v 2.905200 4.993002 -0.690594
v 2.275321 5.640383 -0.203910
v -0.116904 0.548983 -0.591888
v 0.963422 0.805314 -1.040654
v 1.989911 8.306078 -0.654107
v 1.725110 6.754470 -0.222656
v 3.009889 7.280879 0.297335
v 0.920932 6.453784 -0.964793
v 0.382911 4.558760 -1.415233
v 1.376347 7.974741 -1.628037
v 2.982915 7.486882 -3.883705
v 0.126672 3.618655 -2.412927
v 1.013445 6.996637 -2.381440
v 2.028986 8.399265 -2.832472
v 0.540300 5.116569 -2.126103
v 1.010060 5.262731 -2.783975
v 2.828465 4.870635 -2.647740
v -2.932839 -9.117518 1.543154
v -2.928129 -7.674976 1.167185
v -3.350222 -8.275932 1.381477
v -3.297834 -7.169636 0.936490
v -2.977842 -8.069100 1.650889
v -3.448522 -7.337920 1.357501
v -3.262775 -8.372892 1.725164
v -2.760041 -8.963218 1.805272
v -2.871235 -8.547462 1.276577
v -2.617243 -8.959152 1.516411
v -3.035270 -7.600997 0.792120
v -3.170783 -7.975298 0.600621
v -3.408105 -7.773955 0.566744
v -3.457465 -8.211657 0.952673
v -2.860050 -8.251789 0.920398
v -2.785493 -8.760719 0.849729
v -2.928031 -8.730570 1.127517
v -2.995513 -8.864493 0.814477
v -3.274523 -7.482078 1.959611
v -2.751527 -7.697930 1.794871
v -3.008467 -8.591985 1.979394
v -2.754090 -8.118746 2.263599
v -3.110476 -7.183643 1.561217
v -2.725449 -8.471888 1.886451
v -3.083045 -8.448592 2.336640
v -2.921191 -6.936263 2.116251
v -2.502877 -9.141690 2.395029
v -2.356836 -9.017694 2.229850
v -2.671402 -9.251547 2.159367
v -2.564091 -9.022472 1.939316
v -2.515700 -8.730960 2.585068
v -2.482527 -7.038436 2.328839
v -2.913227 -8.063866 2.777979
v -3.048400 -7.185377 2.398817
v -2.757999 -7.228615 2.753157
v -2.694280 -7.753861 2.340778
v -2.322559 -8.137507 2.680730
v -2.300643 -8.644350 2.563869
v -2.348039 -8.649657 2.953871
v -2.202566 -1.014016 -0.923987
v -2.649573 -4.760095 -0.194620
v -2.401027 -2.060449 -0.173118
v -2.485213 -3.403960 -0.712170
v -0.598699 -2.513090 -0.681302
v -0.768707 -2.499874 -0.001335
v -2.066493 -2.612054 -1.276882
v -1.625258 -0.380172 -2.282727
v 0.705692 -0.747842 -1.487847
v -1.502221 0.762924 -1.015716
v 0.519396 0.465649 -0.758895
v -2.807184 -7.140407 1.303545
v -2.987196 -7.173368 0.847334
v -2.712441 -7.002626 2.002493
v -3.578866 -6.794384 1.108684
v -3.527330 -6.830514 0.567224
v -3.559019 -7.719594 0.736172
v -3.398269 -6.542384 1.738521
v -2.949343 -6.465957 2.365383
v -2.288803 -5.630621 0.220776
v -0.998831 -6.860695 2.767040
v -0.919499 -6.692286 2.275309
v -2.205632 -6.367657 1.597824
v -2.239146 -6.071888 2.150753
v -3.021134 -7.222064 0.480577
v -1.481174 -5.723997 2.535655
v -1.254364 -5.722099 2.332124
v -1.964226 -4.718494 1.651700
v 0.511751 -0.623371 -0.801112
v -1.425438 -2.553836 0.589642
v -0.482662 1.086990 -0.703338
v -0.331378 -0.596854 -0.260219
v -1.999757 -3.062812 0.819901
v -1.461421 -0.148631 -0.266959
v -1.296307 -1.020776 0.178620
v 1.207442 0.940921 -1.560207
v -1.916396 -4.711133 0.271768
v 0.044695 -1.510180 -1.538018
v 0.389979 -0.812357 -2.037711
v -1.745904 -4.014586 -0.254742
v -0.754088 -0.734355 -2.543991
v 0.079074 0.609997 -2.895199
v -1.341546 -2.789871 -1.163758
v 0.973127 0.736497 -2.201060
v -2.263723 -4.697114 -0.178662
v -0.467795 0.956616 -2.898412
v -2.144464 -5.360362 2.178106
v -1.159296 1.175540 -2.328787
v -2.284476 -2.283530 0.280465
v -0.573521 1.884202 -1.175856
v -0.309756 2.857876 -1.607253
v 2.028856 8.742520 -1.363447
v 0.792802 6.568733 -1.695161
v 0.173207 2.458091 -2.892986
v -2.724806 -4.149534 1.119520
v -2.937726 -4.206458 -0.147258
v -3.062416 -4.271718 0.568602
v -3.045577 -5.073808 0.116137
v 1.365948 6.367341 -3.130299
v 1.707663 7.299720 -3.202223
v 2.887151 8.407813 -3.473011
v -1.614234 0.782221 -1.464881
v -1.943334 -0.318498 -1.674989
v 2.857594 9.179162 -2.480455
v 2.493166 6.578688 0.097028
v 1.626446 2.779783 -0.465825
v -1.389012 -3.736382 0.376123
v 1.782271 5.157516 -3.183689
v 2.229763 6.442398 -3.625212
v -1.752649 -3.906916 1.051588
v -1.698623 -4.692212 0.958812
v -1.525726 -5.767621 1.462055
v 3.125885 8.605557 -0.408721
v 2.942713 9.258841 -1.588543
v 2.931768 5.505954 -3.340528
v 2.974766 7.087880 -1.702306
v 2.876108 6.164168 0.302912
v -0.617024 2.246347 -2.080539
v 2.701797 5.041761 -0.689448
v -2.021648 -5.473645 0.610070
v 2.956893 6.451170 -3.814733
vn 0.6977 -0.4056 -0.5906
vn 0.2418 -0.2536 -0.9366
vn 0.3883 -0.2708 -0.8808
vn 0.8918 -0.3584 0.2761
vn 0.8060 -0.3340 0.4887
vn 0.9149 -0.4005 0.0505
vn 0.5669 -0.2982 0.7679
vn 0.4496 -0.0962 0.8880
vn -0.4639 0.1620 -0.8710
vn -0.3209 0.0470 -0.9460
vn 0.9238 -0.3794 0.0519
vn 0.9145 -0.3815 -0.1350
vn 0.9286 -0.3132 -0.1992
vn -0.5856 -0.8056 -0.0897
vn 0.7572 -0.3971 -0.5186
vn 0.3866 -0.5912 0.7078
vn 0.1844 -0.8755 0.4466
vn 0.8324 -0.2935 -0.4700
vn -0.4871 -0.5729 -0.6591
vn -0.2486 -0.2768 -0.9282
vn 0.4226 -0.4542 -0.7843
vn -0.4597 -0.2528 -0.8513
vn 0.0529 -0.1368 0.9892
vn -0.2636 0.0785 0.9614
vn 0.1504 0.1386 0.9789
vn -0.1637 -0.2854 0.9443
vn -0.5470 0.1142 0.8293
vn -0.6393 0.1352 0.7570
vn -0.7650 0.3442 -0.5444
vn -0.8409 0.2949 -0.4539
vn -0.8540 0.4732 -0.2164
vn -0.9123 0.3883 0.1299
vn 0.8866 -0.3703 -0.2771
vn 0.3306 -0.4006 0.8545
vn -0.3230 -0.9320 -0.1645
vn -0.6376 -0.1285 0.7596
vn 0.6688 0.1654 0.7248
vn -0.8105 -0.4783 0.3380
vn 0.4383 -0.0947 -0.8938
vn -0.8623 -0.3237 -0.3894
vn 0.8538 -0.4405 -0.2774
vn 0.1777 -0.4853 0.8561
vn -0.1933 -0.9030 -0.3836
vn -0.9198 -0.3768 0.1090
vn 0.9873 0.0441 0.1523
vn 0.3996 -0.9162 0.0309
vn -0.9961 -0.0855 -0.0210
vn -0.8807 -0.3006 0.3661
vn 0.3658 -0.1343 -0.9209
vn 0.9600 0.2539 0.1178
vn 0.4971 0.0115 -0.8676
vn -0.7355 -0.3746 -0.5645
vn -0.7032 -0.1504 0.6949
vn 0.2938 -0.5614 0.7736
vn 0.6949 0.1885 0.6940
vn -0.2579 -0.9612 -0.0978
vn 0.2982 -0.3718 -0.8791
vn 0.9859 -0.1542 0.0643
vn -0.9789 -0.0942 0.1814
vn 0.7148 -0.4694 -0.5184
vn 0.3331 -0.5435 0.7705
vn -0.3594 -0.8593 -0.3639
vn -0.1018 -0.3357 -0.9365
vn -0.6394 -0.4271 0.6393
vn 0.4125 -0.9108 -0.0164
vn -0.8982 -0.2377 0.3698
vn -0.9953 -0.0952 -0.0184
vn 0.9727 0.2318 0.0136
vn 0.9645 -0.2518 0.0794
vn -0.0328 0.2548 0.9664
vn 0.7363 -0.5568 -0.3846
vn 0.8262 -0.3858 -0.4106
vn -0.8475 0.4005 0.3484
vn -0.9543 0.2686 0.1314
vn -0.6028 0.4407 0.6652
vn 0.8846 -0.4279 -0.1857
vn 0.6574 -0.3741 -0.6541
vn 0.8495 -0.1206 -0.5136
vn -0.6274 0.2790 0.7270
vn -0.9546 -0.1483 0.2583
vn -0.9952 -0.0957 0.0198
vn -0.9081 -0.0618 -0.4142
vn 0.8265 0.4944 0.2692
vn -0.2283 0.3979 0.8886
vn 0.7010 -0.4016 -0.5894
vn -0.9093 0.1056 0.4024
vn 0.8067 -0.5816 -0.1046
vn 0.7911 -0.2910 0.5381
vn 0.7514 0.1582 0.6406
vn 0.8186 -0.2739 0.5048
vn 0.4148 0.1589 0.8959
vn -0.4567 0.4582 0.7625
vn -0.0280 0.3226 0.9461
vn -0.3274 0.2975 0.8968
vn 0.3070 -0.6066 -0.7333
vn 0.7688 -0.6257 -0.1319
vn -0.3325 -0.3773 -0.8643
vn -0.0251 -0.3966 -0.9177
vn 0.5944 -0.5067 -0.6245
vn 0.0632 0.3919 0.9178
vn 0.3497 0.6363 0.6876
vn -0.6612 0.4163 0.6241
vn -0.8500 0.5237 0.0568
vn -0.5680 0.5602 0.6030
vn -0.6062 0.7733 0.1857
vn -0.9492 0.3011 0.0915
vn -0.8855 0.3240 -0.3331
vn -0.9266 0.2476 -0.2829
vn -0.9572 0.2874 0.0338
vn -0.6515 0.6001 -0.4642
vn -0.8605 -0.0296 -0.5086
vn -0.6632 -0.0266 -0.7480
vn -0.5744 -0.2403 -0.7825
vn -0.8063 0.0336 -0.5906
vn -0.6424 0.2816 -0.7128
vn 0.7774 -0.2166 0.5906
vn 0.4431 0.1024 0.8906
vn 0.4981 0.2121 -0.8408
vn -0.3535 -0.1082 -0.9292
vn 0.4217 0.5600 -0.7132
vn 0.4560 0.8847 0.0973
vn 0.5069 0.1480 0.8492
vn 0.7077 -0.3289 -0.6253
vn 0.9985 -0.0474 -0.0258
vn 0.8118 -0.4859 -0.3238
vn 0.8206 -0.3765 -0.4300
vn 0.5787 -0.7066 0.4071
vn 0.3134 -0.6632 0.6797
vn 0.5698 -0.2197 -0.7918
vn 0.3714 0.8690 -0.3271
vn 0.5825 0.5845 0.5649
vn 0.9995 -0.0241 -0.0183
vn -0.2393 -0.1135 -0.9643
vn -0.7649 0.4358 0.4744
vn 0.7799 -0.3973 -0.4837
vn -0.7122 0.5172 0.4746
vn -0.6713 0.0665 -0.7382
vn -0.6675 0.1115 -0.7362
vn 0.4158 -0.2548 0.8730
vn -0.4389 -0.0469 0.8973
vn 0.9044 -0.4136 0.1048
vn -0.8943 0.4475 -0.0077
vn -0.9321 0.2081 -0.2963
vn -0.1128 0.3910 0.9134
vn 0.6188 -0.6681 -0.4133
vn 0.8970 -0.4390 -0.0514
vn -0.8486 0.2452 0.4687
vn -0.9200 0.2954 0.2578
vn 0.8231 -0.1695 -0.5420
vt 0.101412 0.587216
vt 0.062101 0.620370
vt 0.561511 0.649709
vt 0.380661 0.716420
vt 0.043983 0.561152
vt 0.520291 0.604658
vt 0.416956 0.636447
vt 0.436433 0.563767
vt 0.122823 0.702224
vt 0.600108 0.629106
vt 0.539347 0.178560
vt 0.652295 0.619954
vt 0.683745 0.609714
vt 0.682021 0.652288
vt 0.564487 0.079366
vt 0.035386 0.724168
vt 0.561394 0.701787
vt 0.022860 0.726759
vt 0.527655 0.748214
vt 0.698506 0.961630
vt 0.455571 0.747130
vt 0.411212 0.412834
vt 0.486343 0.448492
vt 0.371610 0.896473
vt 0.399915 0.816274
vt 0.457985 0.876650
vt 0.762712 0.854140
vt 0.344837 0.781012
vt 0.319517 0.669061
vt 0.308401 0.865452
vt 0.152961 0.903148
vt 0.531602 0.816603
vt 0.253505 0.607780
vt 0.262845 0.811808
vt 0.246941 0.915249
vt 0.268972 0.697809
vt 0.224965 0.718711
vt 0.601679 0.970588
vt 0.080371 0.737612
vt 0.911247 0.434394
vt 0.846181 0.359756
vt 0.846495 0.516240
vt 0.825256 0.301705
vt 0.851120 0.553448
vt 0.814726 0.228404
vt 0.788096 0.322862
vt 0.845082 0.473462
vt 0.789165 0.246205
vt 0.810558 0.319104
vt 0.887652 0.427789
vt 0.825863 0.368250
vt 0.850026 0.333751
vt 0.889297 0.469652
vt 0.842684 0.370569
vt 0.897834 0.440257
vt 0.888120 0.554193
vt 0.908537 0.228971
vt 0.916512 0.571526
vt 0.900705 0.585318
vt 0.877771 0.214714
vt 0.890953 0.250921
vt 0.940832 0.546360
vt 0.945548 0.270804
vt 0.971695 0.548095
vt 0.938871 0.274690
vt 0.967466 0.533004
vt 0.930946 0.279357
vt 0.972726 0.559211
vt 0.939501 0.256945
vt 0.726940 0.273301
vt 0.775477 0.481012
vt 0.734797 0.351927
vt 0.802188 0.422304
vt 0.691239 0.291694
vt 0.759031 0.445842
vt 0.755743 0.246139
vt 0.802985 0.526478
vt 0.785876 0.424395
vt 0.710515 0.342804
vt 0.747962 0.513277
vt 0.689679 0.240809
vt 0.699939 0.400930
vt 0.761461 0.374772
vt 0.768971 0.385544
vt 0.718339 0.400506
vt 0.780268 0.368948
vt 0.729654 0.397925
vt 0.785744 0.384888
vt 0.597025 0.346204
vt 0.658083 0.424253
vt 0.715427 0.520361
vt 0.615556 0.302154
vt 0.662480 0.252008
vt 0.683210 0.514792
vt 0.632136 0.239106
vt 0.660087 0.290315
vt 0.702105 0.467519
vt 0.657710 0.457034
vt 0.580900 0.349100
vt 0.643386 0.429171
vt 0.578661 0.329729
vt 0.629428 0.440361
vt 0.282994 0.278314
vt 0.844453 0.678291
vt 0.825238 0.035896
vt 0.196616 0.041926
vt 0.296799 0.200689
vt 0.213737 0.133338
vt 0.108237 0.203452
vt 0.464963 0.194769
vt 0.436499 0.200273
vt 0.194345 0.201390
vt 0.219852 0.353757
vt 0.061325 0.362706
vt 0.507643 0.350337
vt 0.313367 0.399669
vt 0.452620 0.424843
vt 0.806687 0.541728
vt 0.844852 0.560495
vt 0.688026 0.246943
vt 0.749842 0.523288
vt 0.787513 0.199890
vt 0.822558 0.178582
vt 0.863981 0.229171
vt 0.731387 0.200152
vt 0.679851 0.196199
vt 0.802064 0.683324
vt 0.584668 0.645294
vt 0.511388 0.172018
vt 0.607781 0.655678
vt 0.500094 0.155942
vt 0.735832 0.593420
vt 0.696665 0.576939
vt 0.643471 0.155333
vt 0.864892 0.585064
vt 0.574536 0.122808
vt 0.686039 0.679253
vt 0.556369 0.107137
vt 0.373427 0.031528
vt 0.638046 0.049430
vt 0.482736 0.350122
vt 0.396511 0.170076
vt 0.380156 0.437443
vt 0.425889 0.327718
vt 0.358984 0.127749
vt 0.347567 0.335709
vt 0.367199 0.277253
vt 0.516847 0.464856
vt 0.061963 0.488149
vt 0.788896 0.718751
vt 0.137331 0.045156
vt 0.444401 0.050715
vt 0.092952 0.306573
vt 0.104347 0.369572
vt 0.144832 0.102123
vt 0.172777 0.352091
vt 0.159248 0.443108
vt 0.148967 0.197889
vt 0.093611 0.463071
vt 0.814885 0.727510
vt 0.172200 0.048319
vt 0.196680 0.454125
vt 0.671824 0.584179
vt 0.636304 0.124375
vt 0.246604 0.442868
vt 0.329420 0.186547
vt 0.331521 0.484224
vt 0.298949 0.556569
vt 0.327032 0.925766
vt 0.299163 0.781272
vt 0.204037 0.551791
vt 0.328363 0.038698
vt 0.695818 0.066415
vt 0.782157 0.050934
vt 0.233818 0.070495
vt 0.275620 0.044625
vt 0.258566 0.038317
vt 0.742267 0.057089
vt 0.803193 0.057292
vt 0.217512 0.030330
vt 0.215547 0.790199
vt 0.221686 0.850083
vt 0.195505 0.944599
vt 0.559027 0.766904
vt 0.283383 0.400448
vt 0.257682 0.336675
vt 0.259258 0.972056
vt 0.604270 0.735561
vt 0.456805 0.825130
vt 0.471159 0.581813
vt 0.112741 0.112276
vt 0.432748 0.109771
vt 0.171283 0.733113
vt 0.166880 0.820444
vt 0.386950 0.075377
vt 0.400868 0.037093
vt 0.728824 0.718586
vt 0.626608 0.026986
vt 0.420526 0.034461
vt 0.723270 0.650893
vt 0.400025 0.951203
vt 0.726548 0.776063
vt 0.665580 0.730679
vt 0.325330 0.981798
vt 0.109585 0.784145
vt 0.552543 0.930989
vt 0.663774 0.860318
vt 0.482496 0.818268
vt 0.755451 0.908994
vt 0.269937 0.511849
vt 0.515230 0.736153
vt 0.441660 0.023175
vt 0.769027 0.679415
vt 0.126588 0.842298
vt 0.529675 0.875733
s 1
usemtl _11535_arm_V3_FINALdefault
f 1/1/1 110/157/2 7/9/3
f 4/6/4 16/23/5 104/148/6
f 134/190/7 79/117/8 16/23/5
f 122/171/9 110/157/2 114/162/10
f 12/16/11 2/2/12 29/39/13
f 8/10/14 90/130/15 89/128/16
f 10/13/17 11/14/18 9/12/19
f 70/104/20 113/160/21 42/59/22
f 7/9/3 29/39/13 1/1/1
f 6/8/23 5/7/24 15/22/25
f 14/21/26 18/25/27 3/4/28
f 116/165/29 122/171/9 114/162/10
f 24/33/30 146/210/31 119/168/32
f 39/54/33 37/51/34 30/41/35
f 36/49/36 34/46/37 52/76/38
f 38/52/39 30/41/35 32/43/40
f 36/49/36 32/43/40 30/41/35
f 34/47/37 37/50/34 39/55/33
f 37/51/34 34/46/37 36/49/36
f 45/63/41 46/65/42 47/69/43
f 33/44/44 40/56/45 81/119/46
f 33/45/44 85/124/47 43/61/48
f 41/57/49 47/69/43 42/60/22
f 47/69/43 43/61/48 42/60/22
f 45/64/41 44/62/50 46/66/42
f 40/56/45 33/44/44 44/62/50
f 47/68/43 41/58/49 45/64/41
f 53/78/51 50/73/52 52/77/38
f 54/79/53 56/82/54 51/74/55
f 58/85/56 50/72/52 59/87/57
f 54/79/53 58/85/56 56/82/54
f 51/75/55 57/84/58 53/78/51
f 50/72/52 58/85/56 54/79/53
f 59/88/57 53/78/51 57/84/58
f 52/76/38 50/72/52 48/70/59
f 67/99/60 68/101/61 60/89/62
f 65/97/63 55/80/64 82/121/65
f 65/96/63 62/92/66 63/93/67
f 66/98/68 61/91/69 64/94/70
f 61/91/69 66/98/68 65/97/63
f 68/101/61 62/92/66 60/89/62
f 66/98/68 67/100/60 65/97/63
f 68/102/61 66/98/68 64/94/70
f 113/161/21 108/155/71 105/151/72
f 71/107/73 125/176/74 123/172/75
f 80/118/76 52/77/38 34/47/37
f 41/58/49 93/135/77 40/56/45
f 81/119/46 40/56/45 93/135/77
f 82/121/65 49/71/78 80/118/76
f 87/126/79 55/81/64 63/93/67
f 35/48/80 83/122/81 33/45/44
f 33/45/44 84/123/82 85/124/47
f 61/91/69 65/97/63 82/121/65
f 90/131/15 95/138/83 89/129/16
f 9/12/19 8/10/14 115/163/84
f 70/105/20 42/60/22 84/123/82
f 125/178/74 84/123/82 83/122/81
f 113/160/21 88/127/85 93/135/77
f 113/160/21 93/135/77 42/59/22
f 125/178/74 83/122/81 86/125/86
f 91/132/87 92/133/88 61/91/69
f 55/81/64 87/126/79 48/70/59
f 48/70/59 87/126/79 86/125/86
f 86/125/86 35/48/80 52/76/38
f 138/195/89 74/111/90 98/142/91
f 102/146/92 103/147/93 99/143/94
f 111/158/95 108/155/71 113/161/21
f 108/155/71 111/158/95 73/109/96
f 75/112/97 109/156/98 111/158/95
f 109/156/98 107/154/99 111/158/95
f 109/156/98 110/157/2 107/154/99
f 88/127/85 113/160/21 105/150/72
f 87/126/79 115/164/84 123/173/75
f 94/136/100 123/173/75 115/164/84
f 96/140/101 123/173/75 94/136/100
f 123/172/75 117/166/102 71/107/73
f 22/30/103 17/24/104 120/169/105
f 71/107/73 117/166/102 69/103/106
f 25/34/107 27/36/108 121/170/109
f 26/35/110 25/34/107 22/30/103
f 26/35/110 22/30/103 120/169/105
f 69/103/106 124/175/111 125/177/74
f 124/175/111 76/113/112 72/108/113
f 87/126/79 123/173/75 86/125/86
f 126/179/114 70/105/20 84/123/82
f 84/123/82 125/178/74 126/179/114
f 128/182/115 25/34/107 26/35/110
f 14/21/26 6/8/23 134/190/7
f 97/141/116 100/144/117 98/142/91
f 128/182/115 23/31/118 137/194/119
f 23/31/118 128/182/115 129/183/120
f 129/183/120 128/182/115 26/35/110
f 17/24/104 142/204/121 120/169/105
f 19/26/122 17/24/104 18/25/27
f 79/117/8 100/144/117 97/141/116
f 98/142/91 74/111/90 97/141/116
f 29/39/13 7/9/3 143/205/123
f 96/139/101 139/196/124 138/195/89
f 95/137/83 11/14/18 139/197/124
f 92/133/88 10/13/17 115/163/84
f 91/132/87 10/13/17 92/133/88
f 10/13/17 91/132/87 140/200/125
f 140/200/125 11/14/18 10/13/17
f 11/14/18 140/200/125 139/197/124
f 140/200/125 148/213/126 139/197/124
f 13/19/127 14/21/26 147/211/128
f 13/19/127 147/211/128 12/17/11
f 12/16/11 29/39/13 13/18/127
f 149/214/129 137/194/119 23/31/118
f 129/183/120 26/35/110 132/187/130
f 17/24/104 141/201/131 142/204/121
f 141/202/131 144/207/132 142/203/121
f 144/207/132 29/38/13 143/206/123
f 23/32/118 144/207/132 143/206/123
f 110/157/2 122/171/9 136/193/133
f 3/4/28 119/168/32 118/167/134
f 1/1/1 2/2/12 104/149/6
f 110/157/2 1/1/1 112/159/135
f 78/116/136 99/143/94 118/167/134
f 4/6/4 12/17/11 147/211/128
f 27/36/108 127/181/137 28/37/138
f 15/22/25 79/117/8 134/190/7
f 7/9/3 136/193/133 143/205/123
f 25/34/107 128/182/115 127/181/137
f 127/181/137 137/194/119 136/193/133
f 145/208/139 133/189/140 14/21/26
f 137/194/119 149/214/129 143/205/123
f 135/191/141 108/155/71 73/109/96
f 125/177/74 71/107/73 69/103/106
f 130/185/142 131/186/143 69/103/106
f 98/142/91 100/144/117 103/147/93
f 103/147/93 79/117/8 15/22/25
f 96/139/101 101/145/144 123/172/75
f 76/113/112 114/162/10 109/156/98
f 106/153/145 111/158/95 107/154/99
f 114/162/10 110/157/2 109/156/98
f 112/159/135 77/114/146 107/154/99
f 107/154/99 110/157/2 112/159/135
f 116/165/29 114/162/10 76/113/112
f 102/146/92 78/116/136 117/166/102
f 74/111/90 73/110/96 77/115/146
f 146/210/31 130/185/142 78/116/136
f 105/152/72 139/199/124 148/212/126
f 13/20/127 144/207/132 145/209/139
f 142/203/121 144/207/132 132/188/130
f 14/21/26 5/7/24 6/8/23
f 147/211/128 14/21/26 134/190/7
f 134/190/7 16/23/5 4/6/4
f 5/7/24 3/4/28 99/143/94
f 9/12/19 11/14/18 90/130/15
f 4/6/4 147/211/128 134/190/7
f 10/13/17 9/12/19 115/163/84
f 90/130/15 8/10/14 9/12/19
f 15/22/25 5/7/24 99/143/94
f 3/4/28 5/7/24 14/21/26
f 18/25/27 14/21/26 133/189/140
f 18/25/27 17/24/104 20/28/147
f 146/210/31 118/167/134 119/168/32
f 17/24/104 22/30/103 20/28/147
f 121/170/109 27/36/108 21/29/148
f 127/181/137 128/182/115 137/194/119
f 24/33/30 119/168/32 27/36/108
f 28/37/138 127/181/137 136/193/133
f 31/42/149 80/118/76 34/47/37
f 35/48/80 36/49/36 52/76/38
f 33/45/44 32/43/40 35/48/80
f 31/42/149 33/44/44 81/119/46
f 31/42/149 81/119/46 80/118/76
f 36/49/36 35/48/80 32/43/40
f 34/47/37 38/53/39 31/42/149
f 32/43/40 33/45/44 38/52/39
f 38/53/39 33/44/44 31/42/149
f 38/53/39 39/55/33 30/40/35
f 34/47/37 39/55/33 38/53/39
f 37/51/34 36/49/36 30/41/35
f 42/59/22 93/135/77 41/58/49
f 43/61/48 85/124/47 42/60/22
f 43/61/48 46/67/42 33/45/44
f 44/62/50 41/58/49 40/56/45
f 46/66/42 44/62/50 33/44/44
f 46/67/42 43/61/48 47/69/43
f 45/64/41 41/58/49 44/62/50
f 54/79/53 48/70/59 50/72/52
f 49/71/78 51/75/55 53/78/51
f 49/71/78 53/78/51 52/77/38
f 59/88/57 57/84/58 58/86/56
f 57/84/58 56/83/54 58/86/56
f 59/88/57 50/73/52 53/78/51
f 57/84/58 51/75/55 56/83/54
f 51/74/55 55/81/64 54/79/53
f 55/81/64 48/70/59 54/79/53
f 63/93/67 64/95/70 87/126/79
f 60/89/62 62/92/66 65/96/63
f 65/96/63 63/93/67 55/81/64
f 62/92/66 64/95/70 63/93/67
f 62/92/66 68/101/61 64/95/70
f 66/98/68 68/102/61 67/100/60
f 65/97/63 67/100/60 60/90/62
f 79/117/8 97/141/116 16/23/5
f 124/175/111 72/108/113 70/106/20
f 113/161/21 70/106/20 111/158/95
f 76/113/112 124/175/111 131/186/143
f 73/109/96 106/153/145 77/114/146
f 75/112/97 76/113/112 109/156/98
f 107/154/99 77/114/146 106/153/145
f 82/120/65 55/81/64 51/74/55
f 48/70/59 86/125/86 52/76/38
f 52/77/38 80/118/76 49/71/78
f 49/71/78 82/121/65 51/75/55
f 42/60/22 85/124/47 84/123/82
f 80/118/76 81/119/46 93/135/77
f 93/135/77 88/127/85 80/118/76
f 89/129/16 95/138/83 94/136/100
f 8/11/14 89/129/16 115/164/84
f 89/129/16 94/136/100 115/164/84
f 91/132/87 61/91/69 80/118/76
f 64/94/70 61/91/69 92/133/88
f 61/91/69 82/121/65 80/118/76
f 86/125/86 83/122/81 35/48/80
f 83/122/81 84/123/82 33/45/44
f 95/138/83 90/131/15 11/15/18
f 94/136/100 95/138/83 96/140/101
f 97/141/116 77/115/146 104/148/6 16/23/5
f 87/126/79 64/95/70 115/164/84
f 92/134/88 115/164/84 64/95/70
f 79/117/8 103/147/93 100/144/117
f 15/22/25 99/143/94 103/147/93
f 103/147/93 102/146/92 117/166/102
f 111/158/95 70/106/20 75/112/97
f 106/153/145 73/109/96 111/158/95
f 112/159/135 104/149/6 77/114/146
f 138/195/89 135/192/141 74/111/90
f 101/145/144 96/139/101 138/195/89
f 148/213/126 80/118/76 88/127/85
f 148/213/126 88/127/85 105/150/72
f 148/213/126 91/132/87 80/118/76
f 140/200/125 91/132/87 148/213/126
f 22/30/103 121/170/109 20/28/147
f 69/103/106 117/166/102 130/185/142
f 78/116/136 130/185/142 117/166/102
f 146/210/31 78/116/136 118/167/134
f 121/170/109 22/30/103 25/34/107
f 69/103/106 131/186/143 124/175/111
f 24/33/30 28/37/138 122/171/9
f 108/155/71 135/191/141 105/151/72
f 125/178/74 124/174/111 126/179/114
f 27/36/108 28/37/138 24/33/30
f 130/185/142 116/165/29 131/186/143
f 116/165/29 130/185/142 146/210/31
f 132/187/130 26/35/110 120/169/105
f 15/22/25 134/190/7 6/8/23
f 142/204/121 132/187/130 120/169/105
f 133/189/140 19/26/122 18/25/27
f 143/205/123 136/193/133 137/194/119
f 139/198/124 96/140/101 95/138/83
f 105/152/72 135/192/141 139/199/124
f 138/195/89 139/199/124 135/192/141
f 13/19/127 145/208/139 14/21/26
f 17/24/104 19/26/122 141/201/131
f 129/184/120 132/188/130 144/207/132
f 23/32/118 129/184/120 144/207/132
f 13/20/127 29/38/13 144/207/132
f 141/202/131 19/27/122 144/207/132
f 118/167/134 99/143/94 3/4/28
f 1/1/1 29/39/13 2/2/12
f 7/9/3 110/157/2 136/193/133
f 3/4/28 20/28/147 21/29/148
f 21/29/148 27/36/108 119/168/32
f 3/4/28 21/29/148 119/168/32
f 127/181/137 27/36/108 25/34/107
f 136/193/133 122/171/9 28/37/138
f 112/159/135 1/1/1 104/149/6
f 104/149/6 2/2/12 4/5/4
f 20/28/147 121/170/109 21/29/148
f 4/6/4 2/3/12 12/17/11
f 146/210/31 122/171/9 116/165/29
f 122/171/9 146/210/31 24/33/30
f 20/28/147 3/4/28 18/25/27
f 19/26/122 133/189/140 145/208/139
f 78/116/136 102/146/92 99/143/94
f 70/106/20 126/180/114 124/175/111
f 75/112/97 70/106/20 72/108/113
f 72/108/113 76/113/112 75/112/97
f 97/141/116 74/111/90 77/115/146
f 98/142/91 103/147/93 101/145/144
f 101/145/144 117/166/102 123/172/75
f 117/166/102 101/145/144 103/147/93
f 138/195/89 98/142/91 101/145/144
f 73/110/96 74/111/90 135/192/141
f 86/125/86 123/173/75 125/178/74
f 116/165/29 76/113/112 131/186/143
f 145/209/139 144/207/132 19/27/122
f 23/32/118 143/206/123 149/215/129
